# xmcd
#
# Track frame offsets:
# 150
# 16286
# 31868
# 51684
# 75422
# 90556
# 107706
# 122084
# 138106
# 153934
# 172585
#
# Disc length: 2543 seconds
#
#
# Revision: 0
# Processed by: cddbd v1.5.1PL2 Copyright (c) Steve Scherf et al.
# Submitted via: FreeRIP 2.945 
#
DISCID=7809ed0b
DTITLE=Bare Wires - Connected
DYEAR=2006
DGENRE=Blues
TTITLE0=Crossroads Angel
TTITLE1=When It's Over
TTITLE2=Demon Rum
TTITLE3=Empty Bottle - Loaded Gun
TTITLE4=Blues Has Come To Stay
TTITLE5=Chosen One
TTITLE6=Leaves of Summer
TTITLE7=She Comes Around
TTITLE8=Fool In Me
TTITLE9=Hide Me
TTITLE10=Heaven's Town
EXTD=released 07-16-2006
EXTT0=
EXTT1=
EXTT2=
EXTT3=
EXTT4=
EXTT5=
EXTT6=
EXTT7=
EXTT8=
EXTT9=
EXTT10=
PLAYORDER=
